# xmcd
#
# Track frame offsets: 
#        150
#        18651
#        38650
#        54685
#        73834
#        104623
#        122936
#        141772
#        160628
#        177464
#
# Disc length: 2674 seconds
#
# Revision: 0
# Processed by: cddbd v1.5.2PL0 Copyright (c) Steve Scherf et al.
# Submitted via: ExactAudioCopy v0.99pb5
#
DISCID=910a700a
DTITLE=Asia  - Astra  
DYEAR=1900
DGENRE=
TTITLE0=Go
TTITLE1=Voice Of America
TTITLE2=Hard On Me
TTITLE3=Wishing
TTITLE4=Rock And Roll Dream
TTITLE5=Countdown To Zero
TTITLE6=Love Now Till Eternity
TTITLE7=Too Late
TTITLE8=Suspicion
TTITLE9=After The War
EXTD=
EXTT0=
EXTT1=
EXTT2=
EXTT3=
EXTT4=
EXTT5=
EXTT6=
EXTT7=
EXTT8=
EXTT9=
PLAYORDER=
